HIERARCHY
ROOT hip
{
  OFFSET 0 0 0
  CHANNELS 6 Xposition Yposition Zposition Zrotation Yrotation Xrotation
  JOINT abdomen
  {
    OFFSET 0 20.6881 -0.73152
    CHANNELS 3 Zrotation Xrotation Yrotation
    JOINT chest
    {
      OFFSET 0 11.7043 -0.48768
      CHANNELS 3 Zrotation Xrotation Yrotation
      JOINT neck
      {
        OFFSET 0 22.1894 -2.19456
        CHANNELS 3 Zrotation Xrotation Yrotation
        JOINT head
        {
          OFFSET -0.24384 7.07133 1.2192
          CHANNELS 3 Zrotation Xrotation Yrotation
          JOINT leftEye
          {
            OFFSET 4.14528 8.04674 8.04672
            CHANNELS 3 Zrotation Xrotation Yrotation
            End Site
            {
              OFFSET 1 0 0
            }
          }
          JOINT rightEye
          {
            OFFSET -3.6576 8.04674 8.04672
            CHANNELS 3 Zrotation Xrotation Yrotation
            End Site
            {
              OFFSET 1 0 0
            }
          }
        }
      }
      JOINT rCollar
      {
        OFFSET -2.68224 19.2634 -4.8768
        CHANNELS 3 Zrotation Xrotation Yrotation
        JOINT rShldr
        {
          OFFSET -8.77824 -1.95073 1.46304
          CHANNELS 3 Zrotation Xrotation Yrotation
          JOINT rForeArm
          {
            OFFSET -28.1742 -1.7115 0.48768
            CHANNELS 3 Zrotation Xrotation Yrotation
            JOINT rHand
            {
              OFFSET -22.5879 0.773209 7.07136
              CHANNELS 3 Zrotation Xrotation Yrotation
              JOINT rThumb1
              {
                OFFSET -1.2192 -0.487915 3.41376
                CHANNELS 3 Zrotation Xrotation Yrotation
                JOINT rThumb2
                {
                  OFFSET -3.37035 -0.52449 3.41376
                  CHANNELS 3 Zrotation Xrotation Yrotation
                  End Site
                  {
                    OFFSET -1.78271 -1.18214 1.43049
                  }
                }
              }
              JOINT rIndex1
              {
                OFFSET -7.75947 0.938293 5.60832
                CHANNELS 3 Zrotation Xrotation Yrotation
                JOINT rIndex2
                {
                  OFFSET -2.54057 -0.884171 1.56538
                  CHANNELS 3 Zrotation Xrotation Yrotation
                  End Site
                  {
                    OFFSET -1.62519 -0.234802 1.16502
                  }
                }
              }
              JOINT rMid1
              {
                OFFSET -8.24714 1.18213 3.41376
                CHANNELS 3 Zrotation Xrotation Yrotation
                JOINT rMid2
                {
                  OFFSET -3.10165 -0.590103 1.0647
                  CHANNELS 3 Zrotation Xrotation Yrotation
                  End Site
                  {
                    OFFSET -2.48547 -0.328903 0.83742
                  }
                }
              }
              JOINT rRing1
              {
                OFFSET -8.82822 0.546677 1.51678
                CHANNELS 3 Zrotation Xrotation Yrotation
                JOINT rRing2
                {
                  OFFSET -2.60934 -0.819778 -0.0198488
                  CHANNELS 3 Zrotation Xrotation Yrotation
                  End Site
                  {
                    OFFSET -2.33842 -0.294052 0.168128
                  }
                }
              }
              JOINT rPinky1
              {
                OFFSET -8.27202 -0.0477905 -0.4584
                CHANNELS 3 Zrotation Xrotation Yrotation
                JOINT rPinky2
                {
                  OFFSET -1.82734 -0.647385 -0.700984
                  CHANNELS 3 Zrotation Xrotation Yrotation
                  End Site
                  {
                    OFFSET -1.69225 -0.51767 -0.607171
                  }
                }
              }
            }
          }
        }
      }
      JOINT lCollar
      {
        OFFSET 2.68224 19.2634 -4.8768
        CHANNELS 3 Zrotation Xrotation Yrotation
        JOINT lShldr
        {
          OFFSET 8.77824 -1.95073 1.46304
          CHANNELS 3 Zrotation Xrotation Yrotation
          JOINT lForeArm
          {
            OFFSET 28.1742 -1.7115 0.48768
            CHANNELS 3 Zrotation Xrotation Yrotation
            JOINT lHand
            {
              OFFSET 22.5879 0.773209 7.07136
              CHANNELS 3 Zrotation Xrotation Yrotation
              JOINT lThumb1
              {
                OFFSET 1.2192 -0.487915 3.41376
                CHANNELS 3 Zrotation Xrotation Yrotation
                JOINT lThumb2
                {
                  OFFSET 3.37035 -0.52449 3.41376
                  CHANNELS 3 Zrotation Xrotation Yrotation
                  End Site
                  {
                    OFFSET 1.78271 -1.18214 1.43049
                  }
                }
              }
              JOINT lIndex1
              {
                OFFSET 7.75947 0.938293 5.60832
                CHANNELS 3 Zrotation Xrotation Yrotation
                JOINT lIndex2
                {
                  OFFSET 2.54057 -0.884171 1.56538
                  CHANNELS 3 Zrotation Xrotation Yrotation
                  End Site
                  {
                    OFFSET 1.62519 -0.234802 1.16502
                  }
                }
              }
              JOINT lMid1
              {
                OFFSET 8.24714 1.18213 3.41376
                CHANNELS 3 Zrotation Xrotation Yrotation
                JOINT lMid2
                {
                  OFFSET 3.10165 -0.590103 1.0647
                  CHANNELS 3 Zrotation Xrotation Yrotation
                  End Site
                  {
                    OFFSET 2.48547 -0.328903 0.83742
                  }
                }
              }
              JOINT lRing1
              {
                OFFSET 8.82822 0.546677 1.51678
                CHANNELS 3 Zrotation Xrotation Yrotation
                JOINT lRing2
                {
                  OFFSET 2.60934 -0.819778 -0.0198488
                  CHANNELS 3 Zrotation Xrotation Yrotation
                  End Site
                  {
                    OFFSET 2.33842 -0.294052 0.168128
                  }
                }
              }
              JOINT lPinky1
              {
                OFFSET 8.27202 -0.0477905 -0.4584
                CHANNELS 3 Zrotation Xrotation Yrotation
                JOINT lPinky2
                {
                  OFFSET 1.82734 -0.647385 -0.700984
                  CHANNELS 3 Zrotation Xrotation Yrotation
                  End Site
                  {
                    OFFSET 1.69225 -0.51767 -0.607171
                  }
                }
              }
            }
          }
        }
      }
    }
  }
  JOINT rButtock
  {
    OFFSET -8.77824 4.35084 1.2192
    CHANNELS 3 Zrotation Xrotation Yrotation
    JOINT rThigh
    {
      OFFSET 0 -1.70687 -2.19456
      CHANNELS 3 Zrotation Xrotation Yrotation
      JOINT rShin
      {
        OFFSET 0 -36.8199 0.73152
        CHANNELS 3 Zrotation Xrotation Yrotation
        JOINT rFoot
        {
          OFFSET 0.73152 -45.1104 -5.12064
          CHANNELS 3 Zrotation Xrotation Yrotation
          End Site
          {
            OFFSET -1.1221 -3.69964 12.103
          }
        }
      }
    }
  }
  JOINT lButtock
  {
    OFFSET 8.77824 4.35084 1.2192
    CHANNELS 3 Zrotation Xrotation Yrotation
    JOINT lThigh
    {
      OFFSET 0 -1.70687 -2.19456
      CHANNELS 3 Zrotation Xrotation Yrotation
      JOINT lShin
      {
        OFFSET 0 -36.8199 0.73152
        CHANNELS 3 Zrotation Xrotation Yrotation
        JOINT lFoot
        {
          OFFSET -0.73152 -45.1104 -5.12064
          CHANNELS 3 Zrotation Xrotation Yrotation
          End Site
          {
            OFFSET 1.1221 -3.69964 12.103
          }
        }
      }
    }
  }
}
MOTION
Frames:	4
Frame Time:	0.00833333
-3.4907 81.5972 -26.3511 -2.306876 -45.77802 7.270807 1.24322 2.486902 144.636534 -6.41746 11.750897 -144.246195 -17.350966 20.601019 -60.026371 37.942837 15.609307 68.909682 -4.918972 -0.123695 2.879197 2.43692 0.341122 15.934748 -149.253542 21.542087 153.968871 136.69423 7.155859 136.16708 -11.038334 23.261552 87.358756 -4.972008 -2.395867 -5.067465 -8.805116 6.661885 1.586176 -4.074516 2.466783 7.449722 -15.338074 15.060164 11.007671 -9.954579 23.984236 3.477691 -92.290698 59.053055 80.897726 169.641492 -61.796016 136.417463 -143.465945 6.624987 173.793301 42.439314 85.631986 -29.605175 4.726355 24.651808 11.592182 -6.306785 -9.064936 -1.939691 -0.455498 -8.359019 2.213558 -58.100154 -51.075206 29.091904 86.604602 -49.129156 -101.380527 -32.803205 -50.505697 -28.628873 146.266834 13.534898 -85.280894 -37.579985 -55.440262 -31.49729 122.734255 20.743594 -104.602959 -1.658706 9.523997 6.510002 137.271074 35.622633 -121.007646 145.103665 20.645309 -129.936669 -2.88308 1.239789 -1.7604 141.312727 62.350758 -154.160572 -18.00897 41.443722 -5.262359 17.884911 -30.417567 11.861148 -164.784004 75.186963 -9.200069 174.085125 67.102972 -8.725761 0.767057 37.95239 91.871499 -33.530603 53.189295 -55.882451 2.625032 -0.051599 0.294293 19.362329 -41.45712 62.496602 51.87892 41.207155 66.452032 -26.610085 -7.916566 -120.615128
-4.3625 81.669 -28.151799999999998 -7.777291 -50.193204 11.968413 6.434012 2.902946 -144.945712 10.133391 9.750803 145.592588 -8.747812 33.14259 -163.514501 -15.703068 40.635971 -173.671732 -4.985169 -0.134545 3.090008 2.131961 0.280986 15.014578 -8.158482 28.96224 10.017133 -98.257575 -8.691045 157.883504 1.911013 -3.331816 -114.619406 175.962481 -15.271573 141.030394 -172.121956 -7.937083 89.617965 -162.527885 -5.584285 87.925008 -141.932126 2.402929 112.708439 -7.758343 33.502154 2.366833 99.604982 -80.966117 72.557569 -131.667059 47.183329 122.500549 0.676414 -15.42795 -1.318704 -145.821718 37.010554 158.691969 -148.069242 12.42943 -144.689207 165.991628 78.704906 -120.814307 141.730101 42.414283 -146.427254 144.888845 22.761474 -86.34315 -91.338801 75.747162 -31.748034 60.058057 77.972291 -50.017112 -6.883322 -5.427094 1.242715 -9.048794 -15.221738 7.11036 -20.160335 -31.881074 5.386831 159.645759 -17.277314 -109.956419 13.950262 21.344514 -11.419331 -12.345845 -8.427004 5.794836 -3.147606 -3.745215 -0.065802 150.726629 -73.493513 172.420749 -129.205534 84.048006 86.157728 149.835568 0.480015 138.608809 -4.487858 0.561005 -5.356285 10.875509 -9.298172 69.126631 30.252839 12.769793 -91.311216 105.772919 6.769216 0.029553 -178.641249 75.752083 0.387005 -154.853026 24.655231 -169.21128 -11.045161 -58.762039 93.748354 79.36178 67.757303 4.876858
-5.3246 81.624 -29.4082 -13.121699 -52.040842 16.178368 4.875793 4.568717 118.006995 -14.168545 5.21414 -115.807545 2.413868 24.46655 106.737138 -29.726387 -2.28019 -94.29689 -5.03942 -0.150771 3.425154 1.073704 0.123484 13.120811 -4.482828 17.614043 5.906822 -103.117981 -37.838423 166.870118 161.302172 20.491201 -90.277939 -16.957714 33.862805 1.660687 -170.471918 -6.388966 89.281476 -7.583948 -44.609922 6.153501 -145.155709 -2.767543 115.46508 161.038444 -62.508187 96.776022 -19.32727 35.424383 12.549162 9.997593 -26.545983 -0.293631 -0.312481 -23.191589 -5.287932 16.098049 -29.957795 2.485134 -152.872983 25.482303 -146.503749 153.642166 81.366779 -111.601607 101.584611 67.105623 -105.588965 -87.013485 -4.407682 -77.009378 162.639038 43.277555 -17.20674 -123.994565 -59.497868 -114.984065 5.30376 6.737821 -0.217649 154.205507 -55.007045 -108.720382 -9.014756 -12.475199 3.580334 175.659228 -31.913352 -105.156002 163.242452 -6.573549 -139.179999 -114.601413 -71.723261 -87.305179 -3.400522 -2.602753 -0.127367 147.072766 53.847646 -159.887345 -18.172873 43.888414 -4.176418 1.544608 -3.640159 -4.129859 -179.071559 75.479327 0.618963 -162.59859 63.973948 -12.205638 18.060264 33.685003 69.756662 -174.945192 -44.380681 97.709107 2.55741 0.042123 0.773368 39.870685 -43.571235 -53.709189 -56.794759 0.406258 80.22331 -99.864334 -41.185475 -2.137923
-6.194 81.5597 -30.055 -16.60343 -52.687273 18.636431 11.412027 6.020509 -95.801543 16.035813 -0.228835 97.838235 -15.902195 16.115077 -30.500231 32.767313 -1.155187 44.993494 -4.875114 -0.1518 3.56481 -0.28397 -0.027452 11.043571 -156.266252 -6.473804 161.158291 -62.247849 10.987038 9.517054 -168.409843 11.992434 -101.456206 -6.087119 8.510417 -2.604253 4.437212 -6.320203 0.085614 -1.109677 -5.625358 -3.741501 -101.531224 36.677081 83.752012 -163.402541 -19.427112 119.968607 1.893461 -12.656322 -2.680083 -51.813749 58.597762 45.200849 -1.862607 -31.059657 -9.003735 -153.781231 -5.509713 167.866586 -172.162237 80.213533 -148.508635 -144.541688 -2.635324 -136.834981 154.771538 -4.494464 -163.064033 -109.501928 -11.080224 -157.213876 156.441579 45.173676 -12.183193 -113.546251 -61.815025 -105.314728 -179.165658 -19.811037 -90.076942 72.619497 12.33784 -21.271457 153.19348 -24.39189 -122.850149 -177.165669 -54.257267 -111.985876 -178.332078 -50.742113 -139.210932 174.608805 -21.147507 -142.580311 -3.214348 1.682736 -0.829906 -5.175332 30.877686 -4.139446 121.596256 -27.17304 116.740318 147.027433 17.480606 136.390186 173.187076 75.679492 6.332948 -154.390674 62.316836 -22.352486 2.215659 39.543667 -95.572235 30.729554 26.435624 93.010945 -163.479114 75.630967 -11.683505 -153.854704 20.48969 89.896715 62.034211 0.29362 -165.890763 17.870472 -35.950338 95.713179
